<?xml version="1.0" encoding="utf-8"?>
<!-- Generator: Adobe Illustrator 16.0.0, SVG Export Plug-In . SVG Version: 6.00 Build 0)  -->
<!DOCTYPE svg PUBLIC "-//W3C//DTD SVG 1.1//EN" "http://www.w3.org/Graphics/SVG/1.1/DTD/svg11.dtd">
<svg version="1.1" xmlns="http://www.w3.org/2000/svg" xmlns:xlink="http://www.w3.org/1999/xlink" x="0px" y="0px" width="500px"
	 height="500px" viewBox="0 0 500 500" enable-background="new 0 0 500 500" xml:space="preserve">
<g id="BACKGROUND">
	<linearGradient id="SVGID_1_" gradientUnits="userSpaceOnUse" x1="0" y1="250" x2="500" y2="250">
		<stop  offset="0" style="stop-color:#6C8CF3"/>
		<stop  offset="1" style="stop-color:#61CBFF"/>
	</linearGradient>
	<rect display="none" fill="url(#SVGID_1_)" width="500" height="500"/>
	<g>
		<g>
			<linearGradient id="SVGID_2_" gradientUnits="userSpaceOnUse" x1="8.0996" y1="252.5479" x2="497.2861" y2="252.5479">
				<stop  offset="0" style="stop-color:#6C8CF3"/>
				<stop  offset="1" style="stop-color:#61CBFF"/>
			</linearGradient>
			<path fill="url(#SVGID_2_)" d="M110.879,90.812c16.099,1.148,22.834-10.564,30.4-25.618c20.709-41.212,66.829-37.241,82.3-11.863
				c10.958,17.976,34.589,14.277,53.704,7.242c18.814-6.923,50.87-13.576,76.403-5.301c22.299,7.228,31.449,33.3,51.778,31.696
				c44.346-3.498,66.704,43.182,58.672,63.54c-5.243,13.287-7.847,28.151-3.583,41.825c4.694,15.058,15.417,26.981,24.084,39.926
				s15.647,29.128,11.339,44.315c-3.688,12.995-14.684,21.986-21.512,33.479c-21.199,35.688-0.228,90.38-28.478,120.127
				c-20.219,21.292-53.187,16.376-81.479,20.441c-23.594,3.39-45.799,13.953-69.285,18.093
				c-47.564,8.382-95.6-10.081-143.819-10.602c-16.984-0.184-34.288,1.834-50.738-2.631c-21.95-5.96-40.627-23.965-48.243-46.507
				c-10.508-31.105-0.552-67.104-12.424-97.658c-9.671-24.892-33.32-45.141-31.832-72c0.926-16.72,11.64-30.708,19.009-45.54
				C38.127,171.732,23.627,84.586,110.879,90.812z"/>
		</g>
	</g>
</g>
<g id="OBJECTS">
	<path fill="#CFDDF4" d="M426.168,401.294H39.333c-2.117,0-3.833-1.716-3.833-3.833l0,0c0-2.116,1.716-3.832,3.833-3.832h386.835
		c2.116,0,3.832,1.716,3.832,3.832l0,0C430,399.578,428.284,401.294,426.168,401.294z"/>
	<g>
		<g>
			<path fill="#4836F6" d="M426.697,242.788l-0.749-17.259c5.312,1.495,10.994,2.02,16.472,1.131
				c-0.191,1.24-0.441,2.467-0.724,3.688C434.147,228.641,429.938,235.688,426.697,242.788z"/>
			<path fill="#7736F6" d="M441.696,230.347c-1.16,5.021-3.072,9.859-5.724,14.33l-8.565,14.45l-0.71-16.339
				C429.938,235.688,434.147,228.641,441.696,230.347z"/>
			<g>
				<linearGradient id="SVGID_3_" gradientUnits="userSpaceOnUse" x1="411.4238" y1="148.0571" x2="411.4238" y2="119.9336">
					<stop  offset="0" style="stop-color:#FFFFFF;stop-opacity:0.3"/>
					<stop  offset="1" style="stop-color:#FFFFFF"/>
				</linearGradient>
				<path fill="url(#SVGID_3_)" d="M480.329,146.324c-3.149-4.341-11.776-15.435-18.66-16.896
					c-8.586-1.821-10.258,9.949-24.263-4.242c-11.166-11.314-25.701-2.272-36.127,7.58c-2.703,2.555-6.827,2.893-9.839,0.71
					c-6.34-4.594-13.724-7.076-19.695-1.025c-9.557,9.684-10.698,1.652-16.557,2.895c-4.697,0.997-10.584,8.567-12.733,11.529
					c-0.377,0.521,0.078,1.183,0.812,1.183h36.589h10.521h13.458h21.683h53.621C480.215,148.057,480.883,147.087,480.329,146.324z"
					/>
				<linearGradient id="SVGID_4_" gradientUnits="userSpaceOnUse" x1="341.5" y1="108.6162" x2="341.5" y2="88.8169">
					<stop  offset="0" style="stop-color:#FFFFFF;stop-opacity:0.3"/>
					<stop  offset="1" style="stop-color:#FFFFFF"/>
				</linearGradient>
				<path fill="url(#SVGID_4_)" d="M379.184,107.396c-2.212-3.056-8.272-10.866-13.108-11.895
					c-6.031-1.283-7.206,7.004-17.044-2.987c-8.705-8.839-20.325-0.029-27.68,7.624c-4.09,2.541-5.23-1.195-8.634-0.471
					c-3.3,0.702-7.436,6.031-8.945,8.116c-0.266,0.367,0.055,0.833,0.57,0.833h11.651h14.052h10.635h6.211h31.456
					C379.104,108.616,379.572,107.933,379.184,107.396z"/>
				<linearGradient id="SVGID_5_" gradientUnits="userSpaceOnUse" x1="448.7354" y1="182.2485" x2="448.7354" y2="170.8413">
					<stop  offset="0" style="stop-color:#FFFFFF;stop-opacity:0.3"/>
					<stop  offset="1" style="stop-color:#FFFFFF"/>
				</linearGradient>
				<path fill="url(#SVGID_5_)" d="M470.447,181.546c-1.275-1.761-4.767-6.261-7.553-6.854c-3.476-0.739-4.152,4.036-9.82-1.721
					c-5.016-5.093-11.711-0.017-15.948,4.393c-2.356,1.464-3.014-0.688-4.975-0.271c-1.901,0.404-4.284,3.475-5.153,4.676
					c-0.153,0.211,0.031,0.479,0.328,0.479h6.713h8.097h6.127h3.578h18.124C470.4,182.249,470.671,181.855,470.447,181.546z"/>
			</g>
			<g>
				<linearGradient id="SVGID_6_" gradientUnits="userSpaceOnUse" x1="140.9819" y1="108.6162" x2="140.9819" y2="77.5737">
					<stop  offset="0" style="stop-color:#FFFFFF;stop-opacity:0.3"/>
					<stop  offset="1" style="stop-color:#FFFFFF"/>
				</linearGradient>
				<path fill="url(#SVGID_6_)" d="M210.888,106.703c-3.195-4.791-11.948-17.037-18.932-18.648
					c-8.71-2.011-10.407,10.981-24.615-4.683c-11.328-12.488-26.074-2.509-36.651,8.367c-2.743,2.82-6.926,3.192-9.982,0.783
					c-6.432-5.07-13.923-7.811-19.981-1.132c-9.696,10.688-10.853,1.823-16.797,3.195c-4.765,1.1-10.737,9.456-12.917,12.726
					c-0.384,0.575,0.079,1.305,0.822,1.305h37.121h10.674h13.654h21.998h54.4C210.771,108.616,211.449,107.545,210.888,106.703z"/>
				<linearGradient id="SVGID_7_" gradientUnits="userSpaceOnUse" x1="22.7866" y1="190.8711" x2="22.7866" y2="175.353">
					<stop  offset="0" style="stop-color:#FFFFFF;stop-opacity:0.3"/>
					<stop  offset="1" style="stop-color:#FFFFFF"/>
				</linearGradient>
				<path fill="url(#SVGID_7_)" d="M45.464,189.915c-1.734-2.395-6.484-8.516-10.274-9.322c-4.727-1.005-5.648,5.49-13.359-2.341
					c-6.822-6.928-15.93-0.022-21.694,5.975c-0.048,0.03-0.09,0.048-0.137,0.076v6.569h44.81
					C45.401,190.871,45.769,190.336,45.464,189.915z"/>
				<linearGradient id="SVGID_8_" gradientUnits="userSpaceOnUse" x1="45.8433" y1="159.0464" x2="45.8433" y2="143.2803">
					<stop  offset="0" style="stop-color:#FFFFFF;stop-opacity:0.3"/>
					<stop  offset="1" style="stop-color:#FFFFFF"/>
				</linearGradient>
				<path fill="url(#SVGID_8_)" d="M71.827,158.074c-1.525-2.433-5.705-8.652-9.039-9.471c-4.159-1.021-4.969,5.578-11.753-2.378
					c-6.002-7.039-14.015-0.023-19.086,6.071c-2.82,2.023-3.606-0.952-5.953-0.375c-2.276,0.559-5.127,4.802-6.168,6.462
					c-0.183,0.292,0.038,0.663,0.393,0.663h8.034h9.689h7.333h4.282h21.69C71.771,159.046,72.095,158.502,71.827,158.074z"/>
			</g>
			<g>
				<g>
					<path fill="#F577B6" d="M413.861,265.271h42.584c1.933,0,3.5-1.567,3.5-3.5v-10.018c0-1.933-1.567-3.5-3.5-3.5h-42.584
						c-1.933,0-3.5,1.567-3.5,3.5v10.018C410.361,263.703,411.929,265.271,413.861,265.271z"/>
					<path fill="#FFFFFF" d="M446.918,262.123h7.639c1.174,0,2.125-0.951,2.125-2.125v-6.239c0-1.174-0.951-2.125-2.125-2.125
						h-7.639c-1.174,0-2.125,0.951-2.125,2.125v6.239C444.793,261.172,445.744,262.123,446.918,262.123z"/>
					<g>
						<path opacity="0.12" fill="#001D47" d="M417.382,253.944h22.022c0.478,0,0.865,0.388,0.865,0.866s-0.388,0.866-0.865,0.866
							h-22.022c-0.478,0-0.865-0.388-0.865-0.866S416.904,253.944,417.382,253.944z"/>
						<path opacity="0.12" fill="#001D47" d="M428.704,257.847h10.7c0.478,0,0.865,0.388,0.865,0.866s-0.388,0.866-0.865,0.866
							h-10.7c-0.479,0-0.866-0.388-0.866-0.866S428.226,257.847,428.704,257.847z"/>
					</g>
				</g>
				<g>
					<path fill="#FFFFFF" d="M413.861,288.854h42.584c1.933,0,3.5-1.567,3.5-3.5v-10.018c0-1.933-1.567-3.5-3.5-3.5h-42.584
						c-1.933,0-3.5,1.567-3.5,3.5v10.018C410.361,287.286,411.929,288.854,413.861,288.854z"/>
					<path fill="#E0E9F8" d="M446.918,285.706h7.639c1.174,0,2.125-0.951,2.125-2.125v-6.239c0-1.174-0.951-2.125-2.125-2.125
						h-7.639c-1.174,0-2.125,0.951-2.125,2.125v6.239C444.793,284.755,445.744,285.706,446.918,285.706z"/>
					<g>
						<path opacity="0.12" fill="#001D47" d="M417.382,277.527h22.022c0.478,0,0.865,0.388,0.865,0.866s-0.388,0.866-0.865,0.866
							h-22.022c-0.478,0-0.865-0.388-0.865-0.866S416.904,277.527,417.382,277.527z"/>
						<path opacity="0.12" fill="#001D47" d="M428.704,281.43h10.7c0.478,0,0.865,0.388,0.865,0.866s-0.388,0.866-0.865,0.866h-10.7
							c-0.479,0-0.866-0.388-0.866-0.866S428.226,281.43,428.704,281.43z"/>
					</g>
				</g>
				<g>
					<path fill="#7736F6" d="M413.861,312.437h42.584c1.933,0,3.5-1.567,3.5-3.5V298.92c0-1.934-1.567-3.5-3.5-3.5h-42.584
						c-1.933,0-3.5,1.566-3.5,3.5v10.017C410.361,310.869,411.929,312.437,413.861,312.437z"/>
					<path fill="#FFFFFF" d="M446.918,309.29h7.639c1.174,0,2.125-0.952,2.125-2.125v-6.24c0-1.174-0.951-2.125-2.125-2.125h-7.639
						c-1.174,0-2.125,0.951-2.125,2.125v6.24C444.793,308.338,445.744,309.29,446.918,309.29z"/>
					<g>
						<path opacity="0.12" fill="#001D47" d="M417.382,301.111h22.022c0.478,0,0.865,0.388,0.865,0.865
							c0,0.479-0.388,0.866-0.865,0.866h-22.022c-0.478,0-0.865-0.388-0.865-0.866C416.517,301.499,416.904,301.111,417.382,301.111
							z"/>
						<path opacity="0.12" fill="#001D47" d="M428.704,305.014h10.7c0.478,0,0.865,0.387,0.865,0.865s-0.388,0.866-0.865,0.866
							h-10.7c-0.479,0-0.866-0.388-0.866-0.866S428.226,305.014,428.704,305.014z"/>
					</g>
				</g>
			</g>
			<path fill="#FF9272" d="M66.205,322.403l17.06,12.036c1.325,0.935,1.825,2.662,1.205,4.159l0,0
				c-0.787,1.9-3.044,2.702-4.854,1.725l-16.607-8.979L66.205,322.403z"/>
			<path fill="#CEDFE7" d="M422,389.459H78c-4.418,0-8-3.582-8-8v-228.66c0-4.418,3.582-8,8-8h344c4.418,0,8,3.582,8,8v228.66
				C430,385.877,426.418,389.459,422,389.459z"/>
			<g>
				<path fill="#FFFFFF" d="M414.607,287.798H352.25c-1.519,0-2.75-1.231-2.75-2.75v-39.999c0-1.519,1.231-2.75,2.75-2.75h62.357
					c1.519,0,2.75,1.231,2.75,2.75v39.999C417.357,286.566,416.126,287.798,414.607,287.798z"/>
				<path fill="#E0E9F8" d="M410.069,280.724h-53.282c-0.919,0-1.664-0.745-1.664-1.665v-11.266c0-0.919,0.745-1.664,1.664-1.664
					h53.282c0.92,0,1.665,0.745,1.665,1.664v11.266C411.734,279.979,410.989,280.724,410.069,280.724z"/>
				<g>
					<g>
						<g>
							<circle fill="#C2C9E9" cx="403.003" cy="248.374" r="1.197"/>
						</g>
						<g>
							<circle fill="#C2C9E9" cx="407.369" cy="248.374" r="1.197"/>
						</g>
						<g>
							<circle fill="#C2C9E9" cx="411.734" cy="248.374" r="1.197"/>
						</g>
					</g>
				</g>
				<g>
					<circle fill="#A4B5E9" cx="360.019" cy="256.716" r="4.52"/>
					<path fill="#E0E9F8" d="M410.691,259.475H369.83c-0.368,0-0.667-0.299-0.667-0.667v-4.333c0-0.368,0.299-0.667,0.667-0.667
						h40.861c0.368,0,0.667,0.299,0.667,0.667v4.333C411.358,259.176,411.06,259.475,410.691,259.475z"/>
				</g>
			</g>
			<path fill="#7736F6" d="M430,164.799v-12c0-4.418-3.582-8-8-8H78c-4.418,0-8,3.582-8,8v12H430z"/>
			<linearGradient id="SVGID_9_" gradientUnits="userSpaceOnUse" x1="70" y1="211.7993" x2="430" y2="211.7993">
				<stop  offset="0" style="stop-color:#F577B6"/>
				<stop  offset="1" style="stop-color:#FF8262"/>
			</linearGradient>
			<rect x="70" y="191.299" fill="url(#SVGID_9_)" width="360" height="41"/>
			<path fill="#FFFFFF" d="M400.5,186.299H101.633c-2.209,0-4-1.791-4-4v-8.375c0-2.209,1.791-4,4-4H400.5c2.209,0,4,1.791,4,4
				v8.375C404.5,184.508,402.709,186.299,400.5,186.299z"/>
			<g>
				
					<line fill="none" stroke="#8DAEE6" stroke-width="1.5" stroke-linecap="round" stroke-linejoin="round" stroke-miterlimit="10" x1="423.881" y1="173.112" x2="410.833" y2="173.112"/>
				
					<line fill="none" stroke="#8DAEE6" stroke-width="1.5" stroke-linecap="round" stroke-linejoin="round" stroke-miterlimit="10" x1="423.881" y1="178.112" x2="410.833" y2="178.112"/>
				
					<line fill="none" stroke="#8DAEE6" stroke-width="1.5" stroke-linecap="round" stroke-linejoin="round" stroke-miterlimit="10" x1="423.881" y1="183.112" x2="410.833" y2="183.112"/>
			</g>
			
				<path fill="none" stroke="#8DAEE6" stroke-width="1.5" stroke-linecap="round" stroke-linejoin="round" stroke-miterlimit="10" d="
				M82.928,171.641l-5.916,4.363c-0.225,0.242-0.35,0.56-0.35,0.89v7.2c0,0.472,0.383,0.854,0.855,0.854h3.478
				c0.472,0,0.854-0.383,0.854-0.854v-4.568c0-0.982,0.667-1.91,1.641-2.047c1.184-0.167,2.198,0.748,2.198,1.899v4.716
				c0,0.472,0.383,0.854,0.854,0.854h3.478c0.472,0,0.854-0.383,0.854-0.854v-7.2c0-0.33-0.125-0.648-0.35-0.89l-5.916-4.363
				C84.156,171.152,83.382,171.152,82.928,171.641z"/>
			<g>
				<g>
					
						<circle fill="none" stroke="#E0E9F8" stroke-width="1.5" stroke-linecap="round" stroke-linejoin="round" stroke-miterlimit="10" cx="106.03" cy="177.798" r="4.02"/>
					
						<line fill="none" stroke="#E0E9F8" stroke-width="1.5" stroke-linecap="round" stroke-linejoin="round" stroke-miterlimit="10" x1="109.939" y1="182.445" x2="108.599" y2="180.889"/>
				</g>
			</g>
			<g>
				<path fill="#FFFFFF" d="M339.25,219.799h-178.5c-1.243,0-2.25-1.007-2.25-2.25v-11.5c0-1.243,1.007-2.25,2.25-2.25h178.5
					c1.242,0,2.25,1.007,2.25,2.25v11.5C341.5,218.792,340.492,219.799,339.25,219.799z"/>
				<path fill="#E0E9F8" d="M339.25,203.799H324v16h15.25c1.242,0,2.25-1.007,2.25-2.25v-11.5
					C341.5,204.807,340.492,203.799,339.25,203.799z"/>
				<g>
					<g>
						
							<circle fill="none" stroke="#C2C9E9" stroke-width="1.5" stroke-linecap="round" stroke-linejoin="round" stroke-miterlimit="10" cx="332.75" cy="211.531" r="3.438"/>
						
							<line fill="none" stroke="#C2C9E9" stroke-width="1.5" stroke-linecap="round" stroke-linejoin="round" stroke-miterlimit="10" x1="336.093" y1="215.505" x2="334.946" y2="214.174"/>
					</g>
				</g>
			</g>
			<circle fill="#7736F6" cx="86.355" cy="248.374" r="4.52"/>
			<path fill="#FFFFFF" d="M414.607,376.973H352.25c-1.519,0-2.75-1.231-2.75-2.75v-75.164c0-1.519,1.231-2.75,2.75-2.75h62.357
				c1.519,0,2.75,1.231,2.75,2.75v75.164C417.357,375.741,416.126,376.973,414.607,376.973z"/>
			<path fill="#A4B5E9" d="M131.833,251.133H96.167c-0.368,0-0.667-0.299-0.667-0.667v-4.333c0-0.368,0.298-0.667,0.667-0.667
				h35.667c0.368,0,0.667,0.298,0.667,0.667v4.333C132.5,250.834,132.202,251.133,131.833,251.133z"/>
			<path fill="#E0E9F8" d="M168.25,180.945h-48.5c-0.368,0-0.667-0.298-0.667-0.667v-4.333c0-0.368,0.298-0.667,0.667-0.667h48.5
				c0.368,0,0.667,0.298,0.667,0.667v4.333C168.917,180.646,168.618,180.945,168.25,180.945z"/>
			<circle fill="#A4B5E9" cx="86.355" cy="261.624" r="4.52"/>
			<path fill="#A4B5E9" d="M131.833,264.383H96.167c-0.368,0-0.667-0.299-0.667-0.667v-4.333c0-0.368,0.298-0.667,0.667-0.667
				h35.667c0.368,0,0.667,0.299,0.667,0.667v4.333C132.5,264.084,132.202,264.383,131.833,264.383z"/>
			<path fill="#F577B6" d="M106.501,277.633H82.502c-0.368,0-0.667-0.299-0.667-0.667v-1.5c0-0.368,0.298-0.667,0.667-0.667h23.999
				c0.368,0,0.667,0.299,0.667,0.667v1.5C107.168,277.334,106.869,277.633,106.501,277.633z"/>
			<circle fill="#FFFFFF" cx="86.355" cy="288.124" r="4.52"/>
			<path fill="#A4B5E9" d="M131.833,290.883H96.167c-0.368,0-0.667-0.299-0.667-0.667v-4.333c0-0.368,0.298-0.667,0.667-0.667
				h35.667c0.368,0,0.667,0.299,0.667,0.667v4.333C132.5,290.584,132.202,290.883,131.833,290.883z"/>
			<circle fill="#A4B5E9" cx="86.355" cy="301.374" r="4.52"/>
			<path fill="#A4B5E9" d="M131.833,304.133H96.167c-0.368,0-0.667-0.299-0.667-0.667v-4.333c0-0.368,0.298-0.667,0.667-0.667
				h35.667c0.368,0,0.667,0.299,0.667,0.667v4.333C132.5,303.834,132.202,304.133,131.833,304.133z"/>
			<circle fill="#A4B5E9" cx="86.355" cy="314.624" r="4.52"/>
			<path fill="#A4B5E9" d="M131.833,317.383H96.167c-0.368,0-0.667-0.299-0.667-0.667v-4.333c0-0.368,0.298-0.667,0.667-0.667
				h35.667c0.368,0,0.667,0.299,0.667,0.667v4.333C132.5,317.084,132.202,317.383,131.833,317.383z"/>
			<circle fill="#FFFFFF" cx="86.355" cy="327.874" r="4.52"/>
			<path fill="#A4B5E9" d="M131.833,330.633H96.167c-0.368,0-0.667-0.299-0.667-0.667v-4.333c0-0.368,0.298-0.667,0.667-0.667
				h35.667c0.368,0,0.667,0.299,0.667,0.667v4.333C132.5,330.334,132.202,330.633,131.833,330.633z"/>
			<path fill="#F577B6" d="M106.501,343.883H82.502c-0.368,0-0.667-0.299-0.667-0.667v-1.5c0-0.368,0.298-0.667,0.667-0.667h23.999
				c0.368,0,0.667,0.299,0.667,0.667v1.5C107.168,343.584,106.869,343.883,106.501,343.883z"/>
			<circle fill="#A4B5E9" cx="86.355" cy="354.374" r="4.52"/>
			<path fill="#A4B5E9" d="M131.833,357.133H96.167c-0.368,0-0.667-0.299-0.667-0.667v-4.333c0-0.368,0.298-0.667,0.667-0.667
				h35.667c0.368,0,0.667,0.299,0.667,0.667v4.333C132.5,356.834,132.202,357.133,131.833,357.133z"/>
			<circle fill="#FFFFFF" cx="86.355" cy="367.624" r="4.52"/>
			<path fill="#A4B5E9" d="M131.833,370.383H96.167c-0.368,0-0.667-0.299-0.667-0.667v-4.333c0-0.368,0.298-0.667,0.667-0.667
				h35.667c0.368,0,0.667,0.299,0.667,0.667v4.333C132.5,370.084,132.202,370.383,131.833,370.383z"/>
			<g>
				<path fill="#FFFFFF" d="M340.25,305.799h-193.5c-1.519,0-2.75-1.23-2.75-2.75v-58c0-1.519,1.231-2.75,2.75-2.75h193.5
					c1.519,0,2.75,1.231,2.75,2.75v58C343,304.568,341.769,305.799,340.25,305.799z"/>
				<path fill="#E0E9F8" d="M199.333,253.966h-48.5c-0.369,0-0.667-0.299-0.667-0.667v-4.333c0-0.368,0.298-0.667,0.667-0.667h48.5
					c0.368,0,0.667,0.298,0.667,0.667v4.333C200,253.667,199.702,253.966,199.333,253.966z"/>
				<path fill="#E0E9F8" d="M335.312,299.688H150.833c-0.369,0-0.667-0.298-0.667-0.666v-4.334c0-0.368,0.298-0.666,0.667-0.666
					h184.478c0.368,0,0.666,0.298,0.666,0.666v4.334C335.978,299.39,335.68,299.688,335.312,299.688z"/>
				<path fill="#E0E9F8" d="M255.333,253.966h-48.5c-0.369,0-0.667-0.299-0.667-0.667v-4.333c0-0.368,0.298-0.667,0.667-0.667h48.5
					c0.368,0,0.667,0.298,0.667,0.667v4.333C256,253.667,255.701,253.966,255.333,253.966z"/>
				<path fill="#E0E9F8" d="M311.333,253.966h-48.5c-0.368,0-0.666-0.299-0.666-0.667v-4.333c0-0.368,0.298-0.667,0.666-0.667h48.5
					c0.368,0,0.667,0.298,0.667,0.667v4.333C312,253.667,311.701,253.966,311.333,253.966z"/>
				<path fill="#CEDFE7" d="M310.708,285.216h-159.25c-0.713,0-1.292-0.578-1.292-1.292V266.34c0-0.713,0.579-1.291,1.292-1.291
					h159.25c0.714,0,1.292,0.578,1.292,1.291v17.584C312,284.638,311.422,285.216,310.708,285.216z"/>
			</g>
			<g>
				<path fill="#FFFFFF" d="M340.25,376.973h-193.5c-1.519,0-2.75-1.231-2.75-2.75v-58c0-1.52,1.231-2.75,2.75-2.75h193.5
					c1.519,0,2.75,1.23,2.75,2.75v58C343,375.741,341.769,376.973,340.25,376.973z"/>
				<path fill="#E0E9F8" d="M199.333,325.139h-48.5c-0.369,0-0.667-0.298-0.667-0.666v-4.334c0-0.368,0.298-0.666,0.667-0.666h48.5
					c0.368,0,0.667,0.298,0.667,0.666v4.334C200,324.841,199.702,325.139,199.333,325.139z"/>
				<path fill="#E0E9F8" d="M335.312,370.86H150.833c-0.369,0-0.667-0.298-0.667-0.666v-4.334c0-0.368,0.298-0.666,0.667-0.666
					h184.478c0.368,0,0.666,0.298,0.666,0.666v4.334C335.978,370.562,335.68,370.86,335.312,370.86z"/>
				<path fill="#E0E9F8" d="M255.333,325.139h-48.5c-0.369,0-0.667-0.298-0.667-0.666v-4.334c0-0.368,0.298-0.666,0.667-0.666h48.5
					c0.368,0,0.667,0.298,0.667,0.666v4.334C256,324.841,255.701,325.139,255.333,325.139z"/>
				<path fill="#E0E9F8" d="M311.333,325.139h-48.5c-0.368,0-0.666-0.298-0.666-0.666v-4.334c0-0.368,0.298-0.666,0.666-0.666h48.5
					c0.368,0,0.667,0.298,0.667,0.666v4.334C312,324.841,311.701,325.139,311.333,325.139z"/>
				<path fill="#CEDFE7" d="M310.708,356.389h-159.25c-0.713,0-1.292-0.578-1.292-1.291v-17.584c0-0.714,0.579-1.292,1.292-1.292
					h159.25c0.714,0,1.292,0.578,1.292,1.292v17.584C312,355.811,311.422,356.389,310.708,356.389z"/>
			</g>
			<path fill="#E0E9F8" d="M397.154,304.133h14.36c0.782,0,1.417-0.635,1.417-1.417l0,0c0-0.782-0.635-1.417-1.417-1.417h-14.36
				c-0.782,0-1.416,0.635-1.416,1.417l0,0C395.738,303.498,396.372,304.133,397.154,304.133z"/>
			<g>
				<circle fill="#7736F6" cx="362.616" cy="315.808" r="4.52"/>
				<path fill="#E0E9F8" d="M408.094,318.565h-35.667c-0.368,0-0.666-0.298-0.666-0.666v-4.334c0-0.368,0.298-0.666,0.666-0.666
					h35.667c0.368,0,0.667,0.298,0.667,0.666v4.334C408.761,318.268,408.462,318.565,408.094,318.565z"/>
				<path fill="#A4B5E9" d="M408.094,331.815h-49.331c-0.368,0-0.666-0.298-0.666-0.666v-4.334c0-0.368,0.298-0.666,0.666-0.666
					h49.331c0.368,0,0.667,0.298,0.667,0.666v4.334C408.761,331.518,408.462,331.815,408.094,331.815z"/>
			</g>
			<g>
				<circle fill="#7736F6" cx="362.616" cy="351.388" r="4.52"/>
				<path fill="#E0E9F8" d="M408.094,354.146h-35.667c-0.368,0-0.666-0.299-0.666-0.667v-4.333c0-0.368,0.298-0.667,0.666-0.667
					h35.667c0.368,0,0.667,0.299,0.667,0.667v4.333C408.761,353.848,408.462,354.146,408.094,354.146z"/>
				<path fill="#A4B5E9" d="M408.094,367.396h-49.331c-0.368,0-0.666-0.299-0.666-0.667v-4.333c0-0.368,0.298-0.667,0.666-0.667
					h49.331c0.368,0,0.667,0.299,0.667,0.667v4.333C408.761,367.098,408.462,367.396,408.094,367.396z"/>
			</g>
			<path fill="#CEDFE7" d="M395.606,173.376l0.992,2.01c0.229,0.466,0.675,0.79,1.189,0.865l2.218,0.322
				c0.39,0.056,0.545,0.535,0.264,0.81l-1.604,1.564c-0.373,0.363-0.543,0.887-0.455,1.399l0.379,2.208
				c0.066,0.388-0.341,0.684-0.689,0.501l-1.983-1.043c-0.461-0.242-1.011-0.242-1.472,0l-1.983,1.043
				c-0.348,0.183-0.756-0.113-0.688-0.501l0.379-2.208c0.088-0.513-0.082-1.036-0.455-1.399l-1.604-1.564
				c-0.282-0.275-0.127-0.754,0.263-0.81l2.218-0.322c0.516-0.075,0.96-0.398,1.19-0.865l0.992-2.01
				C394.929,173.023,395.433,173.023,395.606,173.376z"/>
			<g>
				<path fill="#001D47" d="M383.771,396.258l-2.093,1.793c-0.398,0.342-0.156,0.994,0.367,0.994h8.215
					c1.145,0,2.097-0.88,2.188-2.021l0.082-1.023c-2.918,0-5.836,0-8.754,0L383.771,396.258z"/>
				<path fill="#001D47" d="M399.067,396l0.032,0.567l-1.658,1.659c-0.303,0.302-0.089,0.818,0.339,0.818h8.806
					c1.241,0,2.235-1.028,2.194-2.269L408.755,396C405.525,396,402.296,396,399.067,396z"/>
				<linearGradient id="SVGID_10_" gradientUnits="userSpaceOnUse" x1="396.2656" y1="391.2217" x2="396.2656" y2="348.0695">
					<stop  offset="0" style="stop-color:#F577B6"/>
					<stop  offset="1" style="stop-color:#FF8262"/>
				</linearGradient>
				<path fill="url(#SVGID_10_)" d="M406.939,341.328c-7.367,1.172-14.734,1.459-22.102,0.837L383.775,396c2.918,0,5.836,0,8.754,0
					l3.783-47.546L399.067,396c3.229,0,6.458,0,9.688,0L406.939,341.328z"/>
				<path fill="#FFBCA8" d="M368.144,284.545c-0.529-1.109-1.759-1.701-2.956-1.423c-1.514,0.353-2.388,1.94-1.877,3.408
					l2.375,6.823c1.977-0.585,3.953-1.372,5.93-1.526L368.144,284.545z"/>
				<path fill="#FFBCA8" d="M392.657,300.32l1.394-6.439c0.555-2.562,3.151-4.128,5.675-3.422l0,0
					c2.39,0.667,3.805,3.125,3.183,5.526l-1.652,6.378c-0.626,2.418-3.13,3.837-5.526,3.133l0,0
					C393.508,304.842,392.167,302.584,392.657,300.32z"/>
				<g>
					
						<ellipse transform="matrix(0.9681 0.2504 -0.2504 0.9681 86.6758 -89.2719)" fill="none" stroke="#7736F6" stroke-width="0.8" stroke-linecap="round" stroke-linejoin="round" stroke-miterlimit="10" cx="394.188" cy="296.011" rx="0.862" ry="1.4"/>
					
						<path fill="none" stroke="#7736F6" stroke-width="0.8" stroke-linecap="round" stroke-linejoin="round" stroke-miterlimit="10" d="
						M395.022,296.227c0,0,2.79,0.295,3.165,0.628s0.104,1.128,0.104,1.128"/>
				</g>
				<path fill="#001D47" d="M417.335,329.654c0.126-2.32-0.294-4.639-1.227-6.768l-6.053-13.818
					c-1.507-3.724-4.906-6.344-8.891-6.852l-12.985-1.655l-11.691-0.94c-0.744-0.06-1.4-0.512-1.722-1.186l-3.151-6.608
					c-1.977,0.154-3.953,0.941-5.93,1.526l3.197,9.186c0.617,1.772,2.05,3.14,3.85,3.673l12.741,3.777l-0.636,32.176
					c7.367,0.622,14.734,0.335,22.102-0.837l-0.717-21.565l4.491,7.381l0.563,8.856c1.904,0,3.809,0,5.713,0L417.335,329.654z"/>
				<path fill="#FFBCA8" d="M411.277,336l0.579,9.081c-0.034,1.121,0.737,2.105,1.834,2.341c1.319,0.282,2.601-0.615,2.785-1.952
					l0.515-9.47C415.086,336,413.182,336,411.277,336z"/>
			</g>
			<path fill="#FFBCA8" d="M164.67,152.657c-2.059,1.337-4.347,2.392-6.628,3.337l2.557,5.287l-4.838,10.906
				c-0.71,1.601,0.046,3.472,1.669,4.13c1.535,0.622,3.287-0.072,3.98-1.575l4.941-10.72c1.12-2.429,1.125-5.225,0.013-7.658
				L164.67,152.657z"/>
			<path fill="#FFBCA8" d="M123.889,154.576l-0.437,3.256c-0.384,2.855,0.596,5.725,2.644,7.75l10.379,10.261
				c0.924,0.914,2.375,1.021,3.423,0.253l0,0c1.215-0.89,1.443-2.613,0.501-3.789l-9.053-12.111l1.09-4.002
				C129.446,156.225,126.625,155.57,123.889,154.576z"/>
			<path fill="#001D47" d="M161.967,146.741c-2.12-4.641-6.422-7.912-11.461-8.715l-9.402-1.499
				c-5.868-0.935-11.699,1.871-14.628,7.041c-0.96,1.694-1.586,3.556-1.846,5.486l-0.741,5.523c2.736,0.994,5.557,1.649,8.549,1.618
				l0.217-0.796c0.721-2.646,3.044-4.542,5.781-4.718l12.212-0.785c2.606-0.167,5.054,1.26,6.19,3.611l1.203,2.488
				c2.282-0.945,4.569-2,6.628-3.337L161.967,146.741z"/>
			<path fill="#FFBCA8" d="M140.246,149.758l0.564-4.666c0.303-2.508,2.502-4.349,5.025-4.206l0,0
				c2.726,0.155,4.771,2.554,4.492,5.27l-0.481,4.688c-0.3,2.92-3.133,4.886-5.974,4.144l-0.083-0.021
				C141.472,154.361,139.958,152.136,140.246,149.758z"/>
			<g>
				<g>
					<g>
						<linearGradient id="SVGID_11_" gradientUnits="userSpaceOnUse" x1="289.793" y1="411.1162" x2="207.2634" y2="411.1162">
							<stop  offset="0" style="stop-color:#FFFFFF;stop-opacity:0.3"/>
							<stop  offset="1" style="stop-color:#FFFFFF"/>
						</linearGradient>
						<path fill="url(#SVGID_11_)" d="M242.788,415.15c0.704-0.773,1.464-1.492,2.181-2.253c0.135-0.139,0.259-0.287,0.391-0.429
							c1.278-2.418,3.613-4.852,5.27-6.832c0.829-0.99,1.747-1.867,2.704-2.701h-37.719c-1.595,0-3.179,0.312-3.544,0.706
							l-13.274,14.279c-0.698,0.751,0.567,1.375,2.843,1.375h37.697C240.38,417.82,241.61,416.445,242.788,415.15z"/>
					</g>
					<g>
						<path fill="#E0E9F8" d="M242.788,415.15c0.704-0.773,1.464-1.492,2.181-2.253c0.135-0.139,0.259-0.287,0.391-0.429
							c0.428-0.809,0.979-1.617,1.577-2.412h-31.755c-1.145,0-2.279,0.266-2.536,0.598l-3.488,4.498
							c-0.315,0.406,0.473,0.74,1.765,0.74h31.194C242.341,415.643,242.566,415.395,242.788,415.15z"/>
						<g>
							<path fill="#A4B5E9" d="M226.444,406.949c-0.404,0.782-3.171,1.438-6.166,1.438s-4.92-0.655-4.322-1.438
								c0.577-0.754,3.303-1.346,6.107-1.346S226.834,406.195,226.444,406.949z"/>
							<path fill="#E0E9F8" d="M250.258,406.073h-17.347c-0.418,0-0.792,0.088-0.835,0.197l-0.521,1.332
								c-0.046,0.117,0.271,0.213,0.707,0.213h16.496C249.278,407.209,249.786,406.627,250.258,406.073z"/>
						</g>
					</g>
				</g>
				<g>
					<g>
						<linearGradient id="SVGID_12_" gradientUnits="userSpaceOnUse" x1="326.9775" y1="411.1162" x2="244.4488" y2="411.1162">
							<stop  offset="0" style="stop-color:#FFFFFF;stop-opacity:0.3"/>
							<stop  offset="1" style="stop-color:#FFFFFF"/>
						</linearGradient>
						<path fill="url(#SVGID_12_)" d="M332.272,419.296h-93.448c-2.276,0-3.541-0.624-2.843-1.375l13.274-14.279
							c0.365-0.394,1.949-0.706,3.545-0.706h65.496c1.596,0,3.18,0.312,3.545,0.706l13.273,14.279
							C335.813,418.672,334.549,419.296,332.272,419.296z"/>
					</g>
					<g>
						<path fill="#E0E9F8" d="M322.989,415.893h-74.881c-1.292,0-2.08-0.334-1.765-0.74l3.488-4.498
							c0.257-0.332,1.392-0.598,2.536-0.598h66.361c1.145,0,2.278,0.266,2.536,0.598l3.488,4.498
							C325.068,415.559,324.28,415.893,322.989,415.893z"/>
						<g>
							<g>
								<g>
									<path fill="#C2C9E9" d="M306.79,404.205c0.718,0,1.382,0.146,1.484,0.325c0.104,0.182-0.403,0.33-1.133,0.33
										s-1.396-0.148-1.487-0.33C305.564,404.351,306.073,404.205,306.79,404.205z"/>
								</g>
								<g>
									<path fill="#C2C9E9" d="M311.527,404.205c0.718,0,1.399,0.146,1.522,0.325c0.126,0.182-0.363,0.33-1.093,0.33
										s-1.413-0.148-1.526-0.33C310.318,404.351,310.81,404.205,311.527,404.205z"/>
								</g>
								<g>
									<path fill="#C2C9E9" d="M316.265,404.205c0.718,0,1.416,0.146,1.562,0.325c0.146,0.182-0.324,0.33-1.054,0.33
										s-1.431-0.148-1.566-0.33C315.073,404.351,315.547,404.205,316.265,404.205z"/>
								</g>
							</g>
						</g>
						<g>
							<path fill="#A4B5E9" d="M263.63,406.949c-0.404,0.782-3.172,1.438-6.166,1.438c-2.995,0-4.921-0.655-4.322-1.438
								c0.577-0.754,3.303-1.346,6.107-1.346C262.053,405.604,264.021,406.195,263.63,406.949z"/>
							<path fill="#E0E9F8" d="M317.829,407.815h-48.382c-0.436,0-0.752-0.096-0.706-0.213l0.521-1.332
								c0.043-0.109,0.416-0.197,0.835-0.197h46.432c0.418,0,0.825,0.088,0.909,0.197l1.019,1.332
								C318.546,407.72,318.266,407.815,317.829,407.815z"/>
						</g>
					</g>
				</g>
				<g>
					<g>
						<path fill="#FFFFFF" d="M377.353,419.296h-93.448c-2.276,0-3.54-0.624-2.843-1.375l13.274-14.279
							c0.365-0.394,1.949-0.706,3.544-0.706h65.497c1.596,0,3.18,0.312,3.545,0.706l13.273,14.279
							C380.894,418.672,379.629,419.296,377.353,419.296z"/>
					</g>
					<g>
						<path fill="#E0E9F8" d="M368.069,415.893h-74.881c-1.292,0-2.08-0.334-1.765-0.74l3.488-4.498
							c0.257-0.332,1.391-0.598,2.536-0.598h66.361c1.145,0,2.278,0.266,2.536,0.598l3.488,4.498
							C370.148,415.559,369.36,415.893,368.069,415.893z"/>
						<g>
							<g>
								<g>
									<path fill="#C2C9E9" d="M351.87,404.205c0.718,0,1.382,0.146,1.484,0.325c0.104,0.182-0.403,0.33-1.133,0.33
										s-1.396-0.148-1.487-0.33C350.644,404.351,351.152,404.205,351.87,404.205z"/>
								</g>
								<g>
									<path fill="#C2C9E9" d="M356.607,404.205c0.718,0,1.398,0.146,1.522,0.325c0.125,0.182-0.363,0.33-1.093,0.33
										s-1.413-0.148-1.526-0.33C355.398,404.351,355.89,404.205,356.607,404.205z"/>
								</g>
								<g>
									<path fill="#C2C9E9" d="M361.345,404.205c0.718,0,1.416,0.146,1.562,0.325c0.146,0.182-0.324,0.33-1.054,0.33
										s-1.432-0.148-1.566-0.33C360.152,404.351,360.627,404.205,361.345,404.205z"/>
								</g>
							</g>
						</g>
						<g>
							<path fill="#A4B5E9" d="M308.71,406.949c-0.405,0.782-3.172,1.438-6.166,1.438c-2.995,0-4.921-0.655-4.322-1.438
								c0.577-0.754,3.303-1.346,6.107-1.346C307.133,405.604,309.1,406.195,308.71,406.949z"/>
							<path fill="#E0E9F8" d="M362.909,407.815h-48.382c-0.436,0-0.752-0.096-0.706-0.213l0.521-1.332
								c0.042-0.109,0.416-0.197,0.834-0.197h46.433c0.418,0,0.825,0.088,0.908,0.197l1.02,1.332
								C363.625,407.72,363.345,407.815,362.909,407.815z"/>
						</g>
					</g>
				</g>
			</g>
			<g>
				<g>
					<linearGradient id="SVGID_13_" gradientUnits="userSpaceOnUse" x1="205.061" y1="139.0005" x2="205.061" y2="122.6255">
						<stop  offset="0" style="stop-color:#FFFFFF;stop-opacity:0.3"/>
						<stop  offset="1" style="stop-color:#FFFFFF"/>
					</linearGradient>
					<path fill="url(#SVGID_13_)" d="M243.278,139h-76.433c-2.209,0-4-1.791-4-4v-8.375c0-2.209,1.791-4,4-4h76.433
						c2.209,0,4,1.791,4,4V135C247.278,137.209,245.487,139,243.278,139z"/>
					<path fill="#E0E9F8" d="M174.822,133.617c0.731-0.838,1.189-1.921,1.189-3.118c0-2.63-2.14-4.77-4.77-4.77
						c-2.63,0-4.77,2.14-4.77,4.77s2.14,4.77,4.77,4.77c0.892,0,1.717-0.261,2.432-0.688l0.909,1.056
						c0.148,0.172,0.358,0.26,0.569,0.26c0.173,0,0.347-0.06,0.489-0.182c0.314-0.27,0.349-0.744,0.079-1.058L174.822,133.617z
						 M167.972,130.499c0-1.803,1.467-3.27,3.27-3.27c1.803,0,3.27,1.467,3.27,3.27c0,1.803-1.467,3.27-3.27,3.27
						C169.438,133.769,167.972,132.302,167.972,130.499z"/>
					<path fill="#E0E9F8" d="M233.461,133.646h-48.5c-0.368,0-0.667-0.298-0.667-0.667v-4.333c0-0.368,0.298-0.667,0.667-0.667h48.5
						c0.368,0,0.667,0.298,0.667,0.667v4.333C234.128,133.348,233.83,133.646,233.461,133.646z"/>
				</g>
				<g>
					<linearGradient id="SVGID_14_" gradientUnits="userSpaceOnUse" x1="190.4883" y1="124.9912" x2="190.4883" y2="108.6162">
						<stop  offset="0" style="stop-color:#FFFFFF;stop-opacity:0.3"/>
						<stop  offset="1" style="stop-color:#FFFFFF"/>
					</linearGradient>
					<path fill="url(#SVGID_14_)" d="M228.705,124.991h-76.434c-2.209,0-4-1.791-4-4v-8.375c0-2.209,1.791-4,4-4h76.434
						c2.209,0,4,1.791,4,4v8.375C232.705,123.2,230.914,124.991,228.705,124.991z"/>
					<path fill="#E0E9F8" d="M160.25,119.607c0.73-0.838,1.189-1.92,1.189-3.118c0-2.63-2.14-4.77-4.77-4.77
						c-2.63,0-4.77,2.14-4.77,4.77c0,2.63,2.14,4.77,4.77,4.77c0.892,0,1.717-0.261,2.431-0.688l0.909,1.056
						c0.148,0.172,0.358,0.261,0.569,0.261c0.173,0,0.347-0.06,0.489-0.182c0.314-0.27,0.349-0.744,0.079-1.058L160.25,119.607z
						 M153.399,116.49c0-1.803,1.467-3.27,3.27-3.27c1.803,0,3.27,1.467,3.27,3.27c0,1.803-1.467,3.27-3.27,3.27
						C154.866,119.76,153.399,118.293,153.399,116.49z"/>
					<path fill="#E0E9F8" d="M218.889,119.637h-48.5c-0.368,0-0.667-0.299-0.667-0.667v-4.333c0-0.369,0.299-0.667,0.667-0.667h48.5
						c0.368,0,0.667,0.298,0.667,0.667v4.333C219.555,119.338,219.257,119.637,218.889,119.637z"/>
				</g>
				<g>
					<path fill="#FFFFFF" d="M256.295,153.195h-76.434c-2.209,0-4-1.791-4-4v-8.375c0-2.209,1.791-4,4-4h76.434c2.209,0,4,1.791,4,4
						v8.375C260.295,151.405,258.504,153.195,256.295,153.195z"/>
					<g>
						<g>
							<path fill="#E0E9F8" d="M184.258,149.463c-2.63,0-4.77-2.139-4.77-4.769c0-2.631,2.14-4.77,4.77-4.77
								c2.63,0,4.77,2.139,4.77,4.77C189.028,147.324,186.888,149.463,184.258,149.463z M184.258,141.424
								c-1.803,0-3.27,1.466-3.27,3.27c0,1.802,1.467,3.269,3.27,3.269c1.803,0,3.27-1.467,3.27-3.269
								C187.528,142.891,186.061,141.424,184.258,141.424z"/>
							<path fill="#E0E9F8" d="M188.167,150.091c-0.211,0-0.42-0.088-0.569-0.261l-1.34-1.556c-0.27-0.313-0.235-0.787,0.079-1.058
								c0.313-0.271,0.787-0.235,1.058,0.079l1.34,1.557c0.27,0.313,0.235,0.787-0.079,1.057
								C188.515,150.032,188.341,150.091,188.167,150.091z"/>
						</g>
					</g>
					<path fill="#E0E9F8" d="M246.479,147.841h-48.5c-0.369,0-0.667-0.298-0.667-0.667v-4.333c0-0.368,0.298-0.667,0.667-0.667h48.5
						c0.368,0,0.667,0.298,0.667,0.667v4.333C247.145,147.543,246.846,147.841,246.479,147.841z"/>
				</g>
			</g>
			<g>
				<circle fill="#CFE4E9" cx="111.602" cy="412.975" r="5.572"/>
				<circle opacity="0.6" fill="#CFE4E9" cx="128.105" cy="412.975" r="5.572"/>
				<circle opacity="0.35" fill="#CFE4E9" cx="144.608" cy="412.975" r="5.572"/>
			</g>
			<g>
				<path fill="#CEDFE7" d="M425.948,225.529l-0.146-3.391l17.212-6.609v3.467c0,2.576-0.205,5.137-0.594,7.664
					C436.942,227.548,431.26,227.024,425.948,225.529z"/>
				<path fill="#FFFFFF" d="M429.864,213.102L429.864,213.102l-0.093-21.929l7.748,1.292c4.004,0.667,7.274,3.567,8.416,7.464
					l2.092,10.745c0.792,2.703-0.683,5.55-3.348,6.464l-9.28,4.684C432.589,219.662,430.759,216.397,429.864,213.102z"/>
				<path fill="#FFBCA8" d="M420.338,220.717l9.526-7.616c0.895,3.296,2.725,6.561,5.535,8.719l-12.19,6.152
					c-2.142,0.734-4.456-0.5-5.04-2.688C417.676,223.437,418.594,221.503,420.338,220.717z"/>
				<path fill="#FFBCA8" d="M436.982,195.534l-0.58-4.8c-0.312-2.58-2.575-4.474-5.17-4.327l0,0
					c-2.804,0.159-4.908,2.627-4.621,5.422l0.496,4.822c0.309,3.004,3.224,5.026,6.146,4.263l0.085-0.022
					C435.722,200.269,437.278,197.98,436.982,195.534z"/>
				<path fill="#042A37" d="M436.896,194.821c0,0-2.298-1.282-2.489-4.446c0,0-4.938,1.885-7.822,0.681
					c-2.884-1.203-2.354-4.656-0.424-5.599c2.354-1.151,3.61,0.942,3.61,0.942s3.139-0.975,5.628,1.325
					C437.939,190.07,436.896,194.821,436.896,194.821z"/>
				<path fill="#CEDFE7" d="M429.864,213.102l7.516-5.314c0.494-0.345,0.124-1.115-0.454-0.945l-7.079,2.119L429.864,213.102z"/>
			</g>
			<g>
				<g>
					<path fill="#FF9272" d="M52.277,368.373c0.534-1.233,0.604-2.618,0.196-3.898l-4.43-13.91c0,0-2.711-7.878-2.708-8.976
						c0,0,18.885,4.439,18.98,5.824l0.594,8.607c0.315,4.567-1.199,10.461-3.745,15.606l-9.696,21.105
						c-0.07,0.195-0.081,0.376-0.045,0.534c-3.447,0-6.534,0-9.939,0L52.277,368.373z"/>
					<path fill="#001D47" d="M41.484,393.267c3.405,0,6.492,0,9.939,0c0.022,0.099,0.059,0.19,0.121,0.265l2.147,2.549
						c0.551,0.654-0.509,2.016-1.579,2.026l-10.447,0.104c-1.253,0.012-1.853-0.968-1.36-2.225L41.484,393.267z"/>
					<path fill="#FFBCA8" d="M63.479,301.644l1.544-4.713c0.7-2.137,2.94-3.362,5.118-2.8l0.533,0.138
						c2.354,0.608,3.723,3.059,3.008,5.382l-1.496,4.857c-0.769,2.498-3.584,3.722-5.936,2.58l-0.581-0.282
						C63.75,305.875,62.815,303.67,63.479,301.644z"/>
					<path fill="#FFBCA8" d="M73.687,307.834c1.073,1.128,2.042,2.363,2.9,3.669l4.485,6.824c0,0,9.86-10.641,11.658-10.916
						s4.392,1.964,3.64,3.926c-0.58,1.51-6.038,9.28-12.276,15.584c-1.556,1.571-4.01,1.8-5.832,0.545l-7.45-9.188l-1.145,1.789
						C68.907,315.363,70.08,310.034,73.687,307.834z"/>
					<path fill="#001D47" d="M74.394,393.304l3.303,2.538c0.848,0.651,0.395,2.007-0.674,2.018l-10.447,0.104
						c-1.253,0.013-2.295-0.963-2.366-2.214l0.057-2.482c3.399,0,6.863,0,10.089,0C74.369,393.278,74.38,393.293,74.394,393.304z"/>
					<path fill="#FFBCA8" d="M63.658,366.335l-11.265-14.712c4.649-1.084,9.253-2.428,13.787-4.133
						c2.17,4.008,4.771,8.47,4.771,8.47c2.371,4.548,3.5,10.415,3.256,15.537l-0.249,21.013c0.025,0.296,0.17,0.565,0.396,0.757
						c-3.226,0-6.689,0-10.089,0l0.536-23.425C64.831,368.577,64.427,367.34,63.658,366.335z"/>
					<path fill="#7736F6" d="M64.506,302.727c0.626-0.043,2.975,0.516,4.874,1.633c1.598,0.939,3.027,2.129,4.307,3.475
						c-3.607,2.2-4.78,7.529-4.019,12.233l-0.657,1.025c-1.826,2.774-3.229,5.783-4.193,8.924c-5.084-0.418-9.81-2.216-13.991-5.024
						C54.291,315.728,56.493,303.277,64.506,302.727z"/>
					<path fill="#4836F6" d="M44.697,333.662c1.917-4.299,5.208-6.365,5.208-6.365c0.32-0.737,0.625-1.511,0.921-2.305
						c4.182,2.809,8.907,4.606,13.991,5.024c-1.069,3.486-1.597,7.138-1.532,10.823c0.006,0.363,0.011,0.571,0.011,0.571
						c0.032,0.643,1.35,3.247,2.883,6.079c-4.534,1.705-9.138,3.049-13.787,4.133l-0.837-1.094l-4.849-5.863
						C44.044,341.445,42.996,337.479,44.697,333.662z"/>
					<path fill="#7736F6" d="M70.187,354.639c0,0-9.934,9.357-28.769,7.235c0,0,4.34-11.197,2.453-21.607
						c-1.462-8.063,6.035-12.97,6.035-12.97s4.842,4.824,14.043,6.174c0,0-1.061,6.09,2.546,11.625
						C68.698,348.478,70.187,354.639,70.187,354.639z"/>
					<path fill="#001D47" d="M71.606,299.084c0,0,2.508,2.172,3.521,0.437c1.013-1.736-0.056-6.019-4.908-6.55
						c-4.497-0.491-6.286,2.953-8.157,6.113c-3.086,5.213-13.724,8.434-13.41,15.397c0.482,10.693,13.408,9.536,15.512,2.938
						c1.616-5.068-0.695-11.147,1.445-12.979C67.748,302.606,69.882,304.316,71.606,299.084z"/>
				</g>
			</g>
		</g>
	</g>
	<path fill="#3427F6" d="M140.542,147.312c0,0-2.604-5.438-0.331-7.388c2.322-1.993,3.422-0.024,6.857-2.447
		c5.432-3.831,13.368,4.271,3.259,8.68c0,0-4.345,1.537-6.845-1.463C143.482,144.694,142.951,146.847,140.542,147.312z"/>
</g>
</svg>
